HIERARCHY
ROOT hip
{
	OFFSET 0.000000 0.000000 0.000000
	CHANNELS 6 Xposition Yposition Zposition Xrotation Zrotation Yrotation 
	JOINT abdomen
	{
		OFFSET 0.000000 3.422050 0.000000
		CHANNELS 3 Xrotation Zrotation Yrotation 
		JOINT chest
		{
			OFFSET 0.000000 8.486693 -0.684411
			CHANNELS 3 Xrotation Zrotation Yrotation 
			JOINT neck
			{
				OFFSET 0.000000 10.266162 -0.273764
				CHANNELS 3 Xrotation Zrotation Yrotation 
				JOINT head
				{
					OFFSET 0.000000 3.148285 0.000000
					CHANNELS 3 Xrotation Zrotation Yrotation 
					End Site
					{
						OFFSET 0.000000 3.148289 0.000000
					}
				}
			}
			JOINT lCollar
			{
				OFFSET 3.422053 6.707223 -0.821293
				CHANNELS 3 Yrotation Zrotation Xrotation 
				JOINT lShldr
				{
					OFFSET 3.285171 0.000000 0.000000
					CHANNELS 3 Zrotation Yrotation Xrotation 
					JOINT lForeArm
					{
						OFFSET 10.129278 0.000000 0.000000
						CHANNELS 3 Yrotation Zrotation Xrotation 
						JOINT lHand
						{
							OFFSET 8.486692 0.000000 0.000000
							CHANNELS 3 Zrotation Yrotation Xrotation 
							End Site
							{
								OFFSET 4.106464 0.000000 0.000000
							}
						}
					}
				}
			}
			JOINT rCollar
			{
				OFFSET -3.558935 6.707223 -0.821293
				CHANNELS 3 Yrotation Zrotation Xrotation 
				JOINT rShldr
				{
					OFFSET -3.148289 0.000000 0.000000
					CHANNELS 3 Zrotation Yrotation Xrotation 
					JOINT rForeArm
					{
						OFFSET -10.266159 0.000000 0.000000
						CHANNELS 3 Yrotation Zrotation Xrotation 
						JOINT rHand
						{
							OFFSET -8.349810 0.000000 0.000000
							CHANNELS 3 Zrotation Yrotation Xrotation 
							End Site
							{
								OFFSET -4.106464 0.000000 0.000000
							}
						}
					}
				}
			}
		}
	}
	JOINT lThigh
	{
		OFFSET 5.338403 -1.642589 1.368821
		CHANNELS 3 Xrotation Zrotation Yrotation 
		JOINT lShin
		{
			OFFSET -2.053232 -20.121670 0.000000
			CHANNELS 3 Xrotation Zrotation Yrotation 
			JOINT lFoot
			{
				OFFSET 0.000000 -19.300380 -1.231939
				CHANNELS 3 Xrotation Yrotation Zrotation 
				End Site
				{
					OFFSET 0.000000 -2.463878 4.653993
				}
			}
		}
	}
	JOINT rThigh
	{
		OFFSET -5.338403 -1.642589 1.368821
		CHANNELS 3 Xrotation Zrotation Yrotation 
		JOINT rShin
		{
			OFFSET 2.053232 -20.121670 0.000000
			CHANNELS 3 Xrotation Zrotation Yrotation 
			JOINT rFoot
			{
				OFFSET 0.000000 -19.300380 -1.231939
				CHANNELS 3 Xrotation Yrotation Zrotation 
				End Site
				{
					OFFSET 0.000000 -2.463878 4.653993
				}
			}
		}
	}
}
MOTION
Frames: 19
Frame Time: 0.049989
0.000000 43.528500 0.000000 0.000000 0.000000 0.000000 0.000000 0.000000 0.000000 0.000000 0.000000 0.000000 0.000000 0.000000 0.000000 0.000000 0.000000 0.000000 0.000000 0.000000 0.000000 0.000000 0.000000 0.000000 0.000000 0.000000 0.000000 0.000000 0.000000 0.000000 0.000000 0.000000 0.000000 0.000000 0.000000 0.000000 0.000000 0.000000 0.000000 0.000000 0.000000 0.000000 0.000000 0.000000 0.000000 0.000000 0.000000 0.000000 0.000000 0.000000 0.000000 0.000000 0.000000 0.000000 0.000000 0.000000 0.000000 0.000000 0.000000 0.000000 
-0.309381 18.810736 -14.000420 -31.005150 -0.005055 -179.998596 2.753175 -0.624424 -0.436535 18.168390 1.958507 -0.365129 0.701178 0.000000 0.000000 0.124147 0.330472 0.000358 -28.986542 -13.660603 -2.952335 -49.179134 -20.953167 -3.765206 -44.014362 3.483897 -0.438706 -7.713421 -0.465689 -1.474077 -11.251749 35.267258 14.418069 46.035347 2.433686 56.262699 45.355083 0.073623 -79.444839 3.959936 -7.713495 -47.836845 -72.584450 46.345226 18.660465 128.423172 44.141647 -9.382003 57.671753 -6.412528 -25.550720 -72.567352 -46.430069 -18.692375 128.380508 -44.199951 9.405520 58.171581 6.673706 25.446941 
-0.309380 18.789478 -14.220387 -30.769606 -0.005057 -179.998611 3.260454 -0.646749 -0.449994 16.267469 1.935241 -0.415001 0.140540 0.000000 0.000000 0.124147 0.330472 0.000358 -28.907370 -15.154954 -1.634090 -48.595352 -20.808903 -4.021634 -43.361130 3.655768 -0.463497 -7.766958 -0.997502 -1.220441 -12.862689 35.202892 15.299559 46.122772 1.682956 56.242111 45.355083 0.073623 -79.444839 5.945320 -5.997111 -48.138947 -71.545273 46.952034 19.292231 127.963982 44.306015 -9.715529 57.462654 -6.172106 -25.214685 -71.531570 -47.032101 -19.326626 127.933296 -44.361080 9.732231 57.963772 6.424799 25.115105 
-0.309380 18.768219 -14.440353 -30.539194 -0.005060 -179.998611 3.767850 -0.668960 -0.463653 14.360773 1.910256 -0.464222 -0.420641 0.000000 0.000000 0.124147 0.330472 0.000358 -28.791294 -16.652103 -0.299408 -48.012676 -20.662169 -4.276302 -42.707447 3.827412 -0.490266 -7.822878 -1.529229 -0.966181 -14.473111 35.118198 16.178972 46.210487 0.931898 56.220375 45.355091 0.073620 -79.444855 7.927790 -4.261240 -48.381664 -70.483559 47.551224 19.947918 127.502106 44.468456 -10.051860 57.252193 -5.932863 -24.877855 -70.473389 -47.626522 -19.984623 127.483543 -44.520393 10.061625 57.754585 6.177045 24.782457 
-0.309380 18.746962 -14.660320 -30.308750 -0.005063 -179.998627 4.275344 -0.691053 -0.477510 12.449337 1.883579 -0.512704 -0.982339 0.000000 0.000000 0.124147 0.330472 0.000358 -28.637138 -18.150314 1.053138 -47.431141 -20.512993 -4.529173 -42.053341 3.998794 -0.519011 -7.881186 -2.060829 -0.711266 -16.081810 35.013203 17.055151 46.298519 0.180583 56.197483 45.355080 0.073626 -79.444832 9.908816 -2.509638 -48.564434 -69.398720 48.142349 20.628124 127.037582 44.628967 -10.390983 57.040375 -5.694819 -24.540237 -69.392242 -48.212891 -20.666965 127.031235 -44.677872 10.393702 57.544037 5.930468 24.449015 
-0.309380 18.725702 -14.880287 -30.078306 -0.005066 -179.998642 4.782916 -0.713025 -0.491565 10.534207 1.855243 -0.560359 -1.544526 0.000000 0.000000 0.124147 0.330472 0.000358 -28.443644 -19.647797 2.425044 -46.850773 -20.361393 -4.780208 -41.398861 4.169878 -0.549729 -7.941897 -2.592264 -0.455666 -17.687613 34.888035 17.926987 46.386871 -0.570929 56.173428 45.355083 0.073623 -79.444839 11.889950 -0.746155 -48.686741 -68.290184 48.724907 21.333414 126.570404 44.787510 -10.732888 56.827213 -5.457994 -24.201834 -68.287529 -48.790676 -21.374182 126.576385 -44.833477 10.728439 57.332104 5.685083 24.114754 
-0.309380 18.704445 -15.100254 -29.847858 -0.005068 -179.998657 5.290544 -0.734874 -0.505816 8.616452 1.825289 -0.607105 -2.107178 0.000000 0.000000 0.124147 0.330472 0.000358 -28.209488 -21.142694 3.817873 -46.271633 -20.207409 -5.029379 -40.744019 4.340631 -0.582418 -8.005019 -3.123493 -0.199350 -19.289339 34.742805 18.793350 46.475586 -1.322567 56.148197 45.355083 0.073623 -79.444839 13.872795 1.025268 -48.748089 -67.157387 49.298389 22.064342 126.100594 44.944080 -11.077569 56.612717 -5.222407 -23.862646 -67.158775 -49.359425 -22.106833 126.119011 -44.987194 11.065835 57.118797 5.440912 23.779699 
-0.309380 18.683186 -15.320221 -29.617392 -0.005071 -179.998657 5.798211 -0.756597 -0.520260 6.697145 1.793761 -0.652859 -2.670267 0.000000 0.000000 0.124147 0.330472 0.000358 -27.933308 -22.633135 5.233264 -45.693726 -20.051054 -5.276651 -40.088867 4.511018 -0.617073 -8.070561 -3.654478 0.057714 -20.885859 34.577717 19.653168 46.564667 -2.074265 56.121792 45.355083 0.073623 -79.444839 15.859013 2.800628 -48.748070 -65.999832 49.862293 22.821430 125.628166 45.098640 -11.425006 56.396893 -4.988077 -23.522684 -66.005424 -49.918606 -22.865427 125.659103 -45.139000 11.405874 56.904144 5.197976 23.443851 
-0.309380 18.661928 -15.540188 -29.386934 -0.005074 -179.998672 6.305897 -0.778192 -0.534897 4.777355 1.760709 -0.697542 -3.233766 0.000000 0.000000 0.124147 0.330472 0.000358 -27.613663 -24.117186 6.672921 -45.117111 -19.892365 -5.521993 -39.433422 4.681004 -0.653691 -8.138535 -4.185177 0.315557 -22.476067 34.393005 20.505392 46.654167 -2.825952 56.094212 45.355087 0.073626 -79.444839 17.850275 4.575879 -48.686283 -64.816994 50.416088 23.605185 125.153152 45.251167 -11.775178 56.179726 -4.755021 -23.181942 -64.827019 -50.467728 -23.650455 125.196724 -45.288872 11.748538 56.688129 4.956292 23.107201 
-0.309380 18.640669 -15.760155 -29.156479 -0.005077 -179.998688 6.813579 -0.799655 -0.549724 2.858165 1.726190 -0.741079 -3.797649 0.000000 0.000000 0.124147 0.330472 0.000358 -27.249060 -25.592876 8.138616 -44.541821 -19.731373 -5.765374 -38.777744 4.850556 -0.692266 -8.208950 -4.715551 0.574210 -24.058901 34.188946 21.349016 46.744064 -3.577559 56.065411 45.355083 0.073622 -79.444839 19.848282 6.346950 -48.562370 -63.608440 50.959251 24.416084 124.675545 45.401630 -12.128070 55.961277 -4.523265 -22.840445 -63.623081 -51.006248 -24.462374 124.731850 -45.436779 12.093813 56.470791 4.715885 22.769783 
-0.309380 18.619411 -15.980122 -28.926016 -0.005079 -179.998703 7.321241 -0.820986 -0.564740 0.940650 1.690264 -0.783400 -4.361889 0.000000 0.000000 0.124147 0.330472 0.000358 -26.837929 -27.058180 9.632178 -43.967876 -19.568104 -6.006762 -38.121841 5.019639 -0.732791 -8.281820 -5.245559 0.833705 -25.633316 33.965851 22.183065 46.834435 -4.329025 56.035423 45.355080 0.073627 -79.444832 21.854725 8.109770 -48.376038 -62.373703 51.491241 25.254572 124.195351 45.550018 -12.483680 55.741505 -4.292823 -22.498180 -62.393185 -51.533604 -25.301594 124.264519 -45.582695 12.441679 56.252106 4.476771 22.431570 
-0.309380 18.598152 -16.200089 -28.695559 -0.005082 -179.998703 7.828860 -0.842180 -0.579943 -0.974120 1.652995 -0.824437 -4.926460 0.000000 0.000000 0.124147 0.330472 0.000358 -26.378662 -28.511066 11.155510 -43.395336 -19.402590 -6.246131 -37.465759 5.188218 -0.775260 -8.357157 -5.775161 1.094075 -27.198338 33.724068 23.006609 46.925274 -5.080280 56.004227 45.355083 0.073623 -79.444839 23.871275 9.860294 -48.127048 -61.112408 52.011459 26.120974 123.712646 45.696304 -12.841966 55.520454 -4.063715 -22.155169 -61.137009 -52.049305 -26.168507 123.794762 -45.726635 12.792135 56.032104 4.238969 22.092583 
-0.309380 18.576895 -16.420055 -28.465105 -0.005085 -179.998703 8.336417 -0.863236 -0.595331 -2.885083 1.614454 -0.864128 -5.491333 0.000000 0.000000 0.124147 0.330472 0.000358 -25.869583 -29.949438 12.710555 -42.824196 -19.234859 -6.483452 -36.809547 5.356263 -0.819666 -8.434974 -6.304319 1.355350 -28.753044 33.464008 23.818794 47.016602 -5.831251 55.971790 45.355083 0.073623 -79.444839 25.899561 11.594514 -47.815186 -59.824268 52.519417 27.015680 123.227394 45.840454 -13.202921 55.298122 -3.835963 -21.811407 -59.854198 -52.552734 -27.063395 123.322548 -45.868530 13.145144 55.810787 4.002500 21.752832 
-0.309380 18.555635 -16.640022 -28.234682 -0.005087 -179.998718 8.843896 -0.884151 -0.610903 -4.791193 1.574712 -0.902416 -6.056480 0.000000 0.000000 0.124147 0.330472 0.000358 -25.309004 -31.371210 14.299324 -42.254524 -19.064947 -6.718699 -36.153214 5.523736 -0.866000 -8.515282 -6.832989 1.617564 -30.296547 33.186081 24.618792 47.108456 -6.581877 55.938126 45.355087 0.073624 -79.444839 27.941166 13.308493 -47.440346 -58.508980 53.014469 27.938919 122.739624 45.982437 -13.566513 55.074509 -3.609581 -21.466906 -58.544544 -53.043377 -27.986515 122.847923 -46.008366 13.500688 55.588165 3.767383 21.412310 
-0.309380 18.534378 -16.859989 -28.005270 -0.005090 -179.998734 9.351270 -0.904923 -0.626655 -6.691419 1.533846 -0.939249 -6.621876 0.000000 0.000000 0.124147 0.330472 0.000358 -24.695158 -32.774212 15.923840 -41.686310 -18.892878 -6.951841 -35.496807 5.690608 -0.914253 -8.598099 -7.361135 1.880750 -31.828030 32.890759 25.405844 47.200851 -7.332088 55.903202 45.355087 0.073621 -79.444855 29.997562 14.998366 -47.002472 -57.166374 53.496086 28.890892 122.249390 46.122242 -13.932723 54.849644 -3.384591 -21.121675 -57.207840 -53.520641 -28.938057 122.370903 -46.146130 13.858747 55.364254 3.533638 21.071035 
-0.309380 18.551201 -16.683769 -28.041101 -0.005089 -179.998734 8.945344 -0.888307 -0.614070 -5.170027 1.566110 -0.909311 -7.187493 0.000000 0.000000 0.124147 0.330472 0.000358 -25.172428 -31.647156 14.631170 -42.141186 -19.029909 -6.764793 -36.021870 5.556968 -0.876356 -8.532683 -6.938468 1.670376 -30.599562 33.121292 24.772694 47.126972 -6.732043 55.930870 45.355083 0.073623 -79.444839 28.297218 13.531671 -47.370266 -58.231831 53.106300 28.137669 122.640594 46.009651 -13.640565 55.029140 -3.564958 -21.397530 -58.268433 -53.134262 -28.185349 122.751999 -46.035244 13.572955 55.542976 3.721079 21.343750 
-0.309380 18.568022 -16.507549 -28.077995 -0.005089 -179.998718 8.539359 -0.871600 -0.601600 -3.645073 1.597641 -0.878454 -7.753302 0.000000 0.000000 0.124147 0.330472 0.000358 -25.615498 -30.508505 13.361588 -42.596981 -19.165556 -6.576400 -36.546875 5.422952 -0.839689 -8.468876 -6.515472 1.460624 -29.363594 33.340614 24.131439 47.053444 -6.131742 55.957733 45.355083 0.073621 -79.444839 26.608168 12.047791 -47.692734 -59.279682 52.708057 27.402941 123.030174 45.895657 -13.350089 55.207817 -3.746210 -21.672907 -59.311615 -52.739479 -27.450928 123.131561 -45.923042 13.288783 55.720863 3.909394 21.615974 
-0.309380 18.584845 -16.331327 -28.114882 -0.005088 -179.998718 8.133320 -0.854803 -0.589247 -2.117083 1.628399 -0.846705 -8.319279 0.000000 0.000000 0.124147 0.330472 0.000358 -26.025290 -29.359346 12.114009 -43.053711 -19.299805 -6.386688 -37.071804 5.288573 -0.804256 -8.406663 -6.092166 1.251479 -28.120543 33.548470 23.482460 46.980255 -5.531231 55.983803 45.355083 0.073623 -79.444839 24.929405 10.549050 -47.969963 -60.310040 52.301651 26.686605 123.418175 45.780293 -13.061310 55.385689 -3.928339 -21.947815 -60.337456 -52.336571 -26.734709 123.509544 -45.809517 13.006239 55.897903 4.098572 21.887703 
-0.309380 18.601665 -16.155107 -28.151772 -0.005088 -179.998718 7.727243 -0.837916 -0.577013 -0.586593 1.658347 -0.814094 -8.885391 0.000000 0.000000 0.124147 0.330472 0.000358 -26.402721 -28.200762 10.887380 -43.511337 -19.432632 -6.195662 -37.596645 5.153849 -0.770062 -8.346045 -5.668574 1.042922 -26.870852 33.744648 22.826180 46.907387 -4.930528 56.009083 45.355083 0.073623 -79.444839 23.259886 9.037826 -48.202091 -61.323044 51.887363 25.988501 123.804558 45.663567 -12.774231 55.562744 -4.111336 -22.222242 -61.346111 -51.925838 -26.036537 123.886002 -45.694702 12.725337 56.074127 4.288607 22.158949 
